<svg width="169" height="120" viewBox="0 0 169 120" fill="none" xmlns="http://www.w3.org/2000/svg">
<path fill-rule="evenodd" clip-rule="evenodd" d="M7 101.5L6.99992 17L14.9999 17L15 101.5L7 101.5Z" fill="#3883BA"/>
<path fill-rule="evenodd" clip-rule="evenodd" d="M93 100L93 66L101 66L101 100L93 100Z" fill="#3883BA"/>
<path fill-rule="evenodd" clip-rule="evenodd" d="M53.5 15L15.6931 15L15.6931 7L53.5 7C70.8969 7 85 21.103 85 38.5C85 55.897 70.897 70 53.5 70H13L13 62L53.5 62C66.4787 62 77 51.4787 77 38.5C77 25.5213 66.4787 15 53.5 15Z" fill="#3883BA"/>
<path fill-rule="evenodd" clip-rule="evenodd" d="M134.75 15L85.5 15V7L134.75 7C149.8 7 162 19.2002 162 34.25C162 49.2998 149.8 61.5 134.75 61.5H124V53.5H134.75C145.381 53.5 154 44.8815 154 34.25C154 23.6185 145.381 15 134.75 15Z" fill="#3883BA"/>
<path d="M110 57.9999L131 45.8756L131 70.1243L110 57.9999Z" fill="#3883BA"/>
<path fill-rule="evenodd" clip-rule="evenodd" d="M133.19 61.5001C145.05 61.5001 154.557 71.3155 154.179 83.1699L153.502 104.373L161.498 104.628L162.175 83.4251C162.697 67.0547 149.568 53.5001 133.19 53.5001L124 53.5001L124 61.5001L133.19 61.5001Z" fill="#3883BA"/>
<path fill-rule="evenodd" clip-rule="evenodd" d="M11 112C12.6569 112 14 110.657 14 109C14 107.343 12.6569 106 11 106C9.34315 106 8 107.343 8 109C8 110.657 9.34315 112 11 112ZM11 120C17.0751 120 22 115.075 22 109C22 102.925 17.0751 98 11 98C4.92487 98 0 102.925 0 109C0 115.075 4.92487 120 11 120Z" fill="#3883BA"/>
<path fill-rule="evenodd" clip-rule="evenodd" d="M97 112C98.6569 112 100 110.657 100 109C100 107.343 98.6569 106 97 106C95.3431 106 94 107.343 94 109C94 110.657 95.3431 112 97 112ZM97 120C103.075 120 108 115.075 108 109C108 102.925 103.075 98 97 98C90.9249 98 86 102.925 86 109C86 115.075 90.9249 120 97 120Z" fill="#3883BA"/>
<path fill-rule="evenodd" clip-rule="evenodd" d="M158 112C159.657 112 161 110.657 161 109C161 107.343 159.657 106 158 106C156.343 106 155 107.343 155 109C155 110.657 156.343 112 158 112ZM158 120C164.075 120 169 115.075 169 109C169 102.925 164.075 98 158 98C151.925 98 147 102.925 147 109C147 115.075 151.925 120 158 120Z" fill="#3883BA"/>
<path fill-rule="evenodd" clip-rule="evenodd" d="M97 62C98.6569 62 100 60.6569 100 59C100 57.3431 98.6569 56 97 56C95.3431 56 94 57.3431 94 59C94 60.6569 95.3431 62 97 62ZM97 70C103.075 70 108 65.0751 108 59C108 52.9249 103.075 48 97 48C90.9249 48 86 52.9249 86 59C86 65.0751 90.9249 70 97 70Z" fill="#3883BA"/>
<path fill-rule="evenodd" clip-rule="evenodd" d="M11 14C12.6569 14 14 12.6569 14 11C14 9.34315 12.6569 8 11 8C9.34315 8 8 9.34315 8 11C8 12.6569 9.34315 14 11 14ZM11 22C17.0751 22 22 17.0751 22 11C22 4.92487 17.0751 0 11 0C4.92487 0 0 4.92487 0 11C0 17.0751 4.92487 22 11 22Z" fill="#3883BA"/>
<path d="M76 7H86V15H85L76 7Z" fill="#3883BA"/>
</svg>
