<svg width="546" height="122" viewBox="0 0 546 122" fill="none" xmlns="http://www.w3.org/2000/svg">
<path fill-rule="evenodd" clip-rule="evenodd" d="M7 101.5L6.99992 17L14.9999 17L15 101.5L7 101.5Z" fill="#3883BA"/>
<path fill-rule="evenodd" clip-rule="evenodd" d="M93 100L93 66L101 66L101 100L93 100Z" fill="#3883BA"/>
<path fill-rule="evenodd" clip-rule="evenodd" d="M53.5 15L15.6931 15L15.6931 7L53.5 7C70.8969 7 85 21.103 85 38.5C85 55.897 70.897 70 53.5 70H13L13 62L53.5 62C66.4787 62 77 51.4787 77 38.5C77 25.5213 66.4787 15 53.5 15Z" fill="#3883BA"/>
<path fill-rule="evenodd" clip-rule="evenodd" d="M134.75 15L85.5 15V7L134.75 7C149.8 7 162 19.2002 162 34.25C162 49.2998 149.8 61.5 134.75 61.5H124V53.5H134.75C145.381 53.5 154 44.8815 154 34.25C154 23.6185 145.381 15 134.75 15Z" fill="#3883BA"/>
<path d="M110 57.9999L131 45.8756L131 70.1243L110 57.9999Z" fill="#3883BA"/>
<path fill-rule="evenodd" clip-rule="evenodd" d="M133.19 61.5001C145.05 61.5001 154.557 71.3155 154.179 83.1699L153.502 104.373L161.498 104.628L162.175 83.4251C162.697 67.0547 149.568 53.5001 133.19 53.5001L124 53.5001L124 61.5001L133.19 61.5001Z" fill="#3883BA"/>
<path d="M508.695 71.7002H518.04L517.83 85.5602L516.675 84.3002C517.095 82.1302 517.795 80.2052 518.775 78.5252C519.825 76.8452 521.05 75.4102 522.45 74.2202C523.92 73.0302 525.53 72.1202 527.28 71.4902C529.03 70.8602 530.85 70.5452 532.74 70.5452C535.33 70.5452 537.675 71.0002 539.775 71.9102C541.945 72.7502 543.905 74.0802 545.655 75.9002L541.77 83.1452L541.35 84.0902L540.615 83.6702C540.405 83.1102 540.16 82.5852 539.88 82.0952C539.67 81.5352 539.11 80.9052 538.2 80.2052C537.15 79.4352 536.135 78.9102 535.155 78.6302C534.175 78.3502 533.055 78.2102 531.795 78.2102C530.115 78.2102 528.435 78.5252 526.755 79.1552C525.075 79.7852 523.535 80.7652 522.135 82.0952C520.805 83.4252 519.755 85.1402 518.985 87.2402C518.215 89.2702 517.83 91.6852 517.83 94.4852V120.105H508.695V71.7002Z" fill="white"/>
<path d="M473.31 121.05C469.81 121.05 466.59 120.525 463.65 119.475C460.78 118.355 458.26 116.745 456.09 114.645C453.99 112.545 452.38 109.92 451.26 106.77C450.14 103.62 449.58 100.05 449.58 96.0602C449.58 92.0002 450.14 88.3952 451.26 85.2452C452.45 82.0952 454.06 79.4352 456.09 77.2652C458.12 75.0952 460.5 73.4502 463.23 72.3302C465.96 71.1402 468.865 70.5452 471.945 70.5452C474.675 70.5452 477.265 71.0352 479.715 72.0152C482.165 72.9252 484.265 74.3252 486.015 76.2152C487.835 78.1052 489.27 80.5202 490.32 83.4602C491.37 86.3302 491.895 89.7252 491.895 93.6452C491.895 94.2752 491.86 94.9752 491.79 95.7452C491.79 96.4452 491.755 97.0752 491.685 97.6352H458.19C458.33 100.505 458.82 102.99 459.66 105.09C460.57 107.12 461.725 108.8 463.125 110.13C464.525 111.39 466.1 112.335 467.85 112.965C469.67 113.595 471.595 113.91 473.625 113.91C475.235 113.91 476.74 113.735 478.14 113.385C479.61 113.035 480.975 112.475 482.235 111.705C483.495 110.935 484.65 109.99 485.7 108.87L490.53 113.49C489.13 115.17 487.52 116.605 485.7 117.795C483.95 118.915 482.025 119.72 479.925 120.21C477.895 120.77 475.69 121.05 473.31 121.05ZM458.505 90.8102H482.97C482.97 88.7102 482.69 86.8552 482.13 85.2452C481.57 83.6352 480.8 82.2352 479.82 81.0452C478.84 79.8552 477.615 78.9802 476.145 78.4202C474.745 77.7902 473.17 77.4752 471.42 77.4752C469.81 77.4752 468.305 77.7552 466.905 78.3152C465.505 78.8052 464.21 79.6102 463.02 80.7302C461.9 81.8502 460.92 83.2502 460.08 84.9302C459.31 86.5402 458.785 88.5002 458.505 90.8102Z" fill="white"/>
<path d="M413.355 96.5851L407.79 101.835V120H398.655V49.9651H407.685H408.735V50.8051C408.315 51.2251 408.035 51.6801 407.895 52.1701C407.825 52.6601 407.79 53.5001 407.79 54.6901V92.2801L430.05 71.4901C430.54 71.5601 431.03 71.6301 431.52 71.7001C432.01 71.7701 432.5 71.8401 432.99 71.9101C433.55 71.9101 434.11 71.9451 434.67 72.0151C435.23 72.0151 435.72 72.0151 436.14 72.0151H439.92L419.97 91.0201L442.965 120L431.94 120.42L413.355 96.5851Z" fill="white"/>
<path d="M369.465 121.155C365.895 121.155 362.605 120.525 359.595 119.265C356.655 118.005 354.1 116.255 351.93 114.015C349.76 111.775 348.045 109.15 346.785 106.14C345.595 103.06 345 99.7001 345 96.0601C345 92.4901 345.595 89.1651 346.785 86.0851C348.045 83.0051 349.76 80.3451 351.93 78.1051C354.1 75.7951 356.655 74.0101 359.595 72.7501C362.605 71.4201 365.86 70.7551 369.36 70.7551C373.49 70.7551 377.13 71.5601 380.28 73.1701C383.5 74.7801 386.09 76.9851 388.05 79.7851L382.695 85.3501L382.065 86.0851L381.435 85.4551C381.435 84.8951 381.33 84.3701 381.12 83.8801C380.91 83.3201 380.385 82.6201 379.545 81.7801C378.075 80.4501 376.465 79.5401 374.715 79.0501C373.035 78.4901 371.075 78.2101 368.835 78.2101C366.945 78.2101 365.125 78.6301 363.375 79.4701C361.625 80.2401 360.05 81.3951 358.65 82.9351C357.32 84.4051 356.235 86.2251 355.395 88.3951C354.625 90.5651 354.24 92.9801 354.24 95.6401C354.24 98.3001 354.625 100.715 355.395 102.885C356.235 104.985 357.355 106.84 358.755 108.45C360.155 109.99 361.8 111.215 363.69 112.125C365.65 112.965 367.715 113.385 369.885 113.385C371.425 113.385 372.93 113.175 374.4 112.755C375.87 112.335 377.27 111.705 378.6 110.865C379.93 109.955 381.155 108.835 382.275 107.505L387.42 113.385C384.97 116.045 382.205 118.005 379.125 119.265C376.045 120.525 372.825 121.155 369.465 121.155Z" fill="white"/>
<path d="M315.81 121.05C312.31 121.05 309.09 120.525 306.15 119.475C303.28 118.355 300.76 116.745 298.59 114.645C296.49 112.545 294.88 109.92 293.76 106.77C292.64 103.62 292.08 100.05 292.08 96.0602C292.08 92.0002 292.64 88.3952 293.76 85.2452C294.95 82.0952 296.56 79.4352 298.59 77.2652C300.62 75.0952 303 73.4502 305.73 72.3302C308.46 71.1402 311.365 70.5452 314.445 70.5452C317.175 70.5452 319.765 71.0352 322.215 72.0152C324.665 72.9252 326.765 74.3252 328.515 76.2152C330.335 78.1052 331.77 80.5202 332.82 83.4602C333.87 86.3302 334.395 89.7252 334.395 93.6452C334.395 94.2752 334.36 94.9752 334.29 95.7452C334.29 96.4452 334.255 97.0752 334.185 97.6352H300.69C300.83 100.505 301.32 102.99 302.16 105.09C303.07 107.12 304.225 108.8 305.625 110.13C307.025 111.39 308.6 112.335 310.35 112.965C312.17 113.595 314.095 113.91 316.125 113.91C317.735 113.91 319.24 113.735 320.64 113.385C322.11 113.035 323.475 112.475 324.735 111.705C325.995 110.935 327.15 109.99 328.2 108.87L333.03 113.49C331.63 115.17 330.02 116.605 328.2 117.795C326.45 118.915 324.525 119.72 322.425 120.21C320.395 120.77 318.19 121.05 315.81 121.05ZM301.005 90.8102H325.47C325.47 88.7102 325.19 86.8552 324.63 85.2452C324.07 83.6352 323.3 82.2352 322.32 81.0452C321.34 79.8552 320.115 78.9802 318.645 78.4202C317.245 77.7902 315.67 77.4752 313.92 77.4752C312.31 77.4752 310.805 77.7552 309.405 78.3152C308.005 78.8052 306.71 79.6102 305.52 80.7302C304.4 81.8502 303.42 83.2502 302.58 84.9302C301.81 86.5402 301.285 88.5002 301.005 90.8102Z" fill="white"/>
<path d="M241.785 49.9651H250.605H251.55V50.8051C251.2 51.2251 250.955 51.6801 250.815 52.1701C250.745 52.6601 250.71 53.5001 250.71 54.6901V79.5751C251.9 77.6851 253.335 76.0751 255.015 74.7451C256.695 73.4151 258.445 72.4001 260.265 71.7001C262.155 70.9301 264.045 70.5451 265.935 70.5451C268.875 70.5451 271.465 71.2451 273.705 72.6451C276.015 73.9751 277.765 76.1451 278.955 79.1551C280.215 82.0951 280.845 85.9801 280.845 90.8101V120H272.025V91.0201C272.025 87.8001 271.675 85.2451 270.975 83.3551C270.275 81.4651 269.295 80.1001 268.035 79.2601C266.845 78.4201 265.445 78.0001 263.835 78.0001C262.575 78.0001 261.315 78.2101 260.055 78.6301C258.795 79.0501 257.605 79.6801 256.485 80.5201C255.365 81.2901 254.35 82.2701 253.44 83.4601C252.6 84.5801 251.935 85.8751 251.445 87.3451C250.955 88.8151 250.71 90.4601 250.71 92.2801V120H241.785V49.9651Z" fill="white"/>
<path d="M211.965 121.155C208.395 121.155 205.105 120.525 202.095 119.265C199.155 118.005 196.6 116.255 194.43 114.015C192.26 111.775 190.545 109.15 189.285 106.14C188.095 103.06 187.5 99.7001 187.5 96.0601C187.5 92.4901 188.095 89.1651 189.285 86.0851C190.545 83.0051 192.26 80.3451 194.43 78.1051C196.6 75.7951 199.155 74.0101 202.095 72.7501C205.105 71.4201 208.36 70.7551 211.86 70.7551C215.99 70.7551 219.63 71.5601 222.78 73.1701C226 74.7801 228.59 76.9851 230.55 79.7851L225.195 85.3501L224.565 86.0851L223.935 85.4551C223.935 84.8951 223.83 84.3701 223.62 83.8801C223.41 83.3201 222.885 82.6201 222.045 81.7801C220.575 80.4501 218.965 79.5401 217.215 79.0501C215.535 78.4901 213.575 78.2101 211.335 78.2101C209.445 78.2101 207.625 78.6301 205.875 79.4701C204.125 80.2401 202.55 81.3951 201.15 82.9351C199.82 84.4051 198.735 86.2251 197.895 88.3951C197.125 90.5651 196.74 92.9801 196.74 95.6401C196.74 98.3001 197.125 100.715 197.895 102.885C198.735 104.985 199.855 106.84 201.255 108.45C202.655 109.99 204.3 111.215 206.19 112.125C208.15 112.965 210.215 113.385 212.385 113.385C213.925 113.385 215.43 113.175 216.9 112.755C218.37 112.335 219.77 111.705 221.1 110.865C222.43 109.955 223.655 108.835 224.775 107.505L229.92 113.385C227.47 116.045 224.705 118.005 221.625 119.265C218.545 120.525 215.325 121.155 211.965 121.155Z" fill="white"/>
<path fill-rule="evenodd" clip-rule="evenodd" d="M11 112C12.6569 112 14 110.657 14 109C14 107.343 12.6569 106 11 106C9.34315 106 8 107.343 8 109C8 110.657 9.34315 112 11 112ZM11 120C17.0751 120 22 115.075 22 109C22 102.925 17.0751 98 11 98C4.92487 98 0 102.925 0 109C0 115.075 4.92487 120 11 120Z" fill="#3883BA"/>
<path fill-rule="evenodd" clip-rule="evenodd" d="M97 112C98.6569 112 100 110.657 100 109C100 107.343 98.6569 106 97 106C95.3431 106 94 107.343 94 109C94 110.657 95.3431 112 97 112ZM97 120C103.075 120 108 115.075 108 109C108 102.925 103.075 98 97 98C90.9249 98 86 102.925 86 109C86 115.075 90.9249 120 97 120Z" fill="#3883BA"/>
<path fill-rule="evenodd" clip-rule="evenodd" d="M158 112C159.657 112 161 110.657 161 109C161 107.343 159.657 106 158 106C156.343 106 155 107.343 155 109C155 110.657 156.343 112 158 112ZM158 120C164.075 120 169 115.075 169 109C169 102.925 164.075 98 158 98C151.925 98 147 102.925 147 109C147 115.075 151.925 120 158 120Z" fill="#3883BA"/>
<path fill-rule="evenodd" clip-rule="evenodd" d="M97 62C98.6569 62 100 60.6569 100 59C100 57.3431 98.6569 56 97 56C95.3431 56 94 57.3431 94 59C94 60.6569 95.3431 62 97 62ZM97 70C103.075 70 108 65.0751 108 59C108 52.9249 103.075 48 97 48C90.9249 48 86 52.9249 86 59C86 65.0751 90.9249 70 97 70Z" fill="#3883BA"/>
<path fill-rule="evenodd" clip-rule="evenodd" d="M11 14C12.6569 14 14 12.6569 14 11C14 9.34315 12.6569 8 11 8C9.34315 8 8 9.34315 8 11C8 12.6569 9.34315 14 11 14ZM11 22C17.0751 22 22 17.0751 22 11C22 4.92487 17.0751 0 11 0C4.92487 0 0 4.92487 0 11C0 17.0751 4.92487 22 11 22Z" fill="#3883BA"/>
<path d="M76 7H86V15H85L76 7Z" fill="#3883BA"/>
</svg>
